<?xml version="1.0" encoding="utf-8"?>
<!-- Generator: Adobe Illustrator 21.0.0, SVG Export Plug-In . SVG Version: 6.00 Build 0)  -->
<svg version="1.1" id="Layer_1" xmlns="http://www.w3.org/2000/svg" xmlns:xlink="http://www.w3.org/1999/xlink" x="0px" y="0px"
	 viewBox="0 0 890 260" style="enable-background:new 0 0 890 260;" xml:space="preserve">
<style type="text/css">
	.st0{opacity:0;}
	.st1{fill:none;stroke:#FFFFFF;stroke-width:15;}
</style>
<g id="Layer_2">
	
		<image style="overflow:visible;" width="926" height="326" xlink:href="97991E1E3763AD63.png"  transform="matrix(1 0 0 1 -17 -34)">
	</image>
	<g>
		<g>
			<g>
				<path class="st0" d="M273.1,245.4l0.8-229.8h63.3c0,0,83.6-2.1,83.5,64.2c-0.2,66.2-72.9,63.7-72.9,63.7h-69.3"/>
				<path class="st1" d="M273.1,245.4l0.8-229.8h63.3c0,0,83.6-2.1,83.5,64.2c-0.2,66.2-72.9,63.7-72.9,63.7h-69.3"/>
			</g>
			<g id="Shape_10_">
				<polyline class="st0" points="32.4,245.4 129.6,28.8 221.4,244.8 				"/>
				<polyline class="st1" points="32.4,245.4 129.6,28.8 221.4,244.8 				"/>
			</g>
			<g>
				<line class="st0" x1="358.3" y1="145.4" x2="425.5" y2="245.4"/>
				<line class="st1" x1="358.3" y1="145.4" x2="425.5" y2="245.4"/>
			</g>
			<g>
				<polyline class="st0" points="624.7,241 488.1,241 488.4,19.1 622.8,19.1 				"/>
				<polyline class="st1" points="624.7,241 488.1,241 488.4,19.1 622.8,19.1 				"/>
			</g>
			<g>
				<line class="st0" x1="488.1" y1="124.3" x2="606" y2="124.2"/>
				<line class="st1" x1="488.1" y1="124.3" x2="606" y2="124.2"/>
			</g>
			<g>
				<ellipse class="st0" cx="757.6" cy="128.8" rx="101" ry="112.1"/>
				<ellipse class="st1" cx="757.6" cy="128.8" rx="101" ry="112.1"/>
			</g>
		</g>
	</g>
</g>
</svg>
